<svg xmlns="http://www.w3.org/2000/svg" xmlns:xlink="http://www.w3.org/1999/xlink" viewBox="0,0,256,256" width="240px" height="240px" fill-rule="evenodd"><g fill="none" fill-rule="evenodd" stroke="none" stroke-width="1" stroke-linecap="butt" stroke-linejoin="miter" stroke-miterlimit="10" stroke-dasharray="" stroke-dashoffset="0" font-family="none" font-weight="none" font-size="none" text-anchor="none" style="mix-blend-mode: normal"><g transform="scale(5.33333,5.33333)"><path d="M34.39,11.524c3.822,-0.314 4.61,-1.524 4.61,-1.524l-1,3c0,0 0.615,-1.26 2.523,-0.353c1.907,0.908 3.477,3.353 3.477,3.353l-0.858,1.412l1.858,2.588l-1.075,0.725c0.079,0.237 0.151,0.477 0.216,0.721c0.573,0.371 2.012,0.826 2.859,1.554c-0.047,1.438 -1.514,1.701 -2.427,1.795c-0.011,2.201 -0.591,4.371 -1.642,6.398c-0.093,1.949 0.211,4.22 0.211,4.22h-1.572c0,0 -0.14,-0.524 -1.572,1.059c-1.432,1.583 -2.619,1.588 -2.619,1.588c0,0 0.036,1.171 -1.048,2.647c-1.083,1.476 -3.143,1.059 -3.143,1.059l-1.572,1.588c0,0 -1.251,0.221 -3.667,0c-2.906,1.015 -7.334,0.529 -7.334,0.529c0,0 -4.415,-1.835 -4.715,0c-1.045,-1.482 -3.143,-2.118 -3.143,-2.118c0,0 0.028,1.237 -0.524,1.059c-2.313,-1.852 -2.536,-3.914 -3.143,-3.177c-1.781,-1.026 -2.359,-3.108 -2.54,-4.147c-0.117,-0.158 -0.23,-0.318 -0.339,-0.48c-0.269,0.14 -0.803,0.411 -1.836,0.921c0.202,-2.112 -0.259,-4.172 -2.62,-6.353c-2.361,-2.181 1.572,-6.353 1.572,-6.353c0,0 -0.373,0.245 -2.096,-2.118c4.603,-0.365 4.715,-1.588 4.715,-1.588c0,0 0.294,-0.208 -2.62,-0.529c0.848,-1.643 4.715,-2.647 4.715,-2.647c0,0 -1.575,-0.306 -1.572,-1.588c0.352,0.759 3.197,0.639 4.29,0.563c2.796,-2.212 6.32,-3.887 10.301,-4.707c4.777,-0.984 9.436,-0.575 13.33,0.903z" fill="#0e00ff"></path><path d="M16.485,5.03c-4.13385,0 -7.485,3.35115 -7.485,7.485c0,4.13385 3.35115,7.485 7.485,7.485c4.13385,0 7.485,-3.35115 7.485,-7.485c0,-4.13385 -3.35115,-7.485 -7.485,-7.485z" fill="#0e00ff"></path><path d="M27.5,4c-4.14214,0 -7.5,3.35786 -7.5,7.5c0,4.14214 3.35786,7.5 7.5,7.5c4.14214,0 7.5,-3.35786 7.5,-7.5c0,-4.14214 -3.35786,-7.5 -7.5,-7.5z" fill="#0e00ff"></path><path d="M16.5,7c-3.03757,0 -5.5,2.46243 -5.5,5.5c0,3.03757 2.46243,5.5 5.5,5.5c3.03757,0 5.5,-2.46243 5.5,-5.5c0,-3.03757 -2.46243,-5.5 -5.5,-5.5z" fill="#faf9f5"></path><path d="M27.5,6c-3.03757,0 -5.5,2.46243 -5.5,5.5c0,3.03757 2.46243,5.5 5.5,5.5c3.03757,0 5.5,-2.46243 5.5,-5.5c0,-3.03757 -2.46243,-5.5 -5.5,-5.5z" fill="#faf9f5"></path><path d="M26,9c-1.10457,0 -2,0.89543 -2,2c0,1.10457 0.89543,2 2,2c1.10457,0 2,-0.89543 2,-2c0,-1.10457 -0.89543,-2 -2,-2zM18,12c-1.10457,0 -2,0.89543 -2,2c0,1.10457 0.89543,2 2,2c1.10457,0 2,-0.89543 2,-2c0,-1.10457 -0.89543,-2 -2,-2z" fill="#353535"></path><path d="M39.786,17.382c-0.342,-0.434 -0.971,-0.506 -1.404,-0.168c-0.669,0.526 -1.34,1.007 -2.013,1.468c0.361,0.176 0.631,0.318 0.631,0.318c0.241,0.456 -3.141,2.131 -3.885,2.043c0.406,0.158 1.825,0.726 1.813,0.735c-0.623,0.51 -2.373,0.782 -3.04,0.626c-0.48,-0.112 -0.938,-0.26 -1.543,-0.329c-0.133,0.025 1.416,1.7 1.348,1.719c-2.34,0.676 -3.693,-0.794 -3.693,-0.794v3c0,0 -2.732,-0.23 -3.928,-1.904c-0.026,0.006 -0.053,0.012 -0.079,0.018c0.016,1.423 -1.533,3.593 -1.993,3.886c0.098,-0.768 -0.219,-2.256 -0.851,-3.048c-0.378,1.015 -0.881,2.123 -2.128,3.048c-0.116,-0.089 -0.021,-2 -0.021,-2c0,0 -0.835,1.082 -1.985,1.565c-0.079,-2.056 -0.035,-2.466 -0.019,-2.544c-0.022,0.001 -0.043,0.001 -0.065,0.002c-0.276,0.097 -1.332,0.549 -1.931,1.977c-0.619,-0.481 -0.855,-1.62 -0.997,-1.992c-0.005,0 -0.009,0 -0.013,-0.001c-0.144,0.008 -0.412,1.284 -1.99,1.993c-0.189,-0.162 -0.129,-1.856 -2.003,-2.37c0.003,-0.004 0.016,-0.011 0.021,-0.016c-1.689,-0.266 -2.684,-0.558 -2.724,-0.57c-0.527,-0.156 -1.087,0.135 -1.25,0.662c-0.162,0.527 0.133,1.087 0.661,1.249c0.168,0.052 1.524,0.754 3.295,1.045c1.781,3.46 7,11 17,10c10.478,-1.048 10.344,-12.157 10,-16c0.807,-0.545 1.814,-1.581 2.618,-2.214c0.434,-0.342 0.509,-0.971 0.168,-1.404z" fill="#e2d0d0"></path><path d="M33.115,21.043c-0.069,-0.027 -0.117,-0.045 -0.115,-0.043c0.024,0.024 0.064,0.037 0.115,0.043z" fill="#e2d0d0"></path><path d="M-1,-1h50v50h-50z" fill="none"></path></g></g></svg>